<svg xmlns="http://www.w3.org/2000/svg" id="Layer_1" data-name="Layer 1" viewBox="522.22 414.81 441.32 154.38">
  <defs>
    <style>
      .cls-1 {
        fill: #fafcfc;
      }

      .cls-1, .cls-2 {
        stroke-width: 0px;
      }

      .cls-2 {
        fill: #51bfc4;
      }
    </style>
  </defs>
  <g>
    <g>
      <g>
        <path class="cls-2" d="M645.25,476.28c0-8.4-6.81-15.21-15.2-15.21h-104.35v23.81h29.54l-31.28,59.65c-1.14,2.18-1.74,4.6-1.74,7.06,0,8.4,6.81,15.21,15.21,15.21h104.34v-23.8h-29.53l31.27-59.66c1.15-2.17,1.74-4.6,1.74-7.06ZM582.69,543h-28.33l30.43-58.12h28.33l-30.43,58.12Z"/>
        <path class="cls-2" d="M731.12,561.3c-3.1,1.93-7.42,3.69-12.85,5.28-5.97,1.73-11.99,2.61-17.88,2.61-11.28,0-20.73-3.59-28.11-10.66-7.37-7.05-11.11-17.85-11.11-32.12v-89.86h25.21v24.53h40.37v23.62h-40.37v40.12c0,13.82,6.56,21.13,18.96,21.13,5.08,0,12.16-1.59,21.6-4.84l4.18,20.19Z"/>
        <path class="cls-2" d="M812.19,461.2v23.76c-2.18-.17-3.98-.26-5.38-.26-10.35,0-18.85,2.76-25.24,8.19-6.46,5.49-9.75,14.58-9.75,27v46.93h-25.21v-105.73h25.21v13.81c13.28-18.54,37.04-14.35,40.37-13.68Z"/>
        <path class="cls-2" d="M826.08,566.8v-105.73h25.21v105.73h-25.21ZM838.78,445.17c-4.65,0-8.41-1.42-11.51-4.33-3.07-2.89-4.56-6.47-4.56-10.95s1.49-7.86,4.56-10.75c3.09-2.91,6.86-4.33,11.51-4.33s8.57,1.38,11.61,4.23c3,2.82,4.46,6.37,4.46,10.84s-1.46,8.07-4.47,10.96c-3.03,2.9-6.82,4.32-11.59,4.32Z"/>
        <path class="cls-2" d="M916.58,569.18c-14.26,0-26.28-3.34-35.72-9.91-8.86-6.17-14.45-14.63-16.63-25.19h25.66c2.95,9.72,12.2,14.64,27.49,14.64,13.23,0,19.94-3.51,19.94-10.45,0-.93-.12-1.82-.36-2.62-.26-.87-.7-1.66-1.3-2.35-.51-.58-1.05-1.12-1.63-1.63-.68-.59-1.57-1.1-2.72-1.56-1.02-.41-1.94-.75-2.75-1.02-.82-.27-1.99-.61-3.56-1.02-1.53-.4-2.86-.73-3.99-1-1.14-.27-2.7-.6-4.7-1-1.95-.39-3.64-.78-5.04-1.16-16-3.77-27.24-7.92-33.44-12.33-6.02-4.28-8.95-10.57-8.95-19.22,0-10.93,4.03-19.22,12.34-25.37,8.32-6.17,19.7-9.29,33.8-9.29s25.15,3.05,32.89,9.07c7.24,5.64,11.97,13.26,14.09,22.66h-25.71c-2.91-7.35-10.39-11.08-22.26-11.08-13.1,0-19.74,3.58-19.74,10.64,0,2.09.82,4.93,4.7,6.57,2.59,1.1,8.25,2.61,17.28,4.63,8.75,1.96,15.76,3.78,20.84,5.4,5.02,1.61,9.84,3.73,14.35,6.3,4.34,2.48,7.47,5.47,9.3,8.89,1.85,3.45,2.78,7.73,2.78,12.73,0,11.3-4.25,19.68-12.98,25.63-8.8,5.99-20.22,9.03-33.95,9.03Z"/>
      </g>
    </g>
  </g>
</svg>