<svg width="21" height="21" viewBox="0 0 21 21" fill="none" xmlns="http://www.w3.org/2000/svg">
<path d="M19.71 13.9198L15.19 9.40985C15.2846 8.94922 15.3315 8.48008 15.33 8.00985C15.3297 6.7205 15.0043 5.45205 14.384 4.32173C13.7636 3.19142 12.8684 2.23573 11.7809 1.54299C10.6935 0.850256 9.44894 0.442835 8.16236 0.358389C6.87578 0.273943 5.58868 0.515196 4.42001 1.05985C4.27195 1.12749 4.14264 1.23025 4.0433 1.35921C3.94397 1.48817 3.87762 1.63943 3.85001 1.79985C3.82252 1.95824 3.83361 2.12092 3.88235 2.27411C3.93109 2.42729 4.01605 2.56647 4.13001 2.67985L8.48001 7.01985L6.68001 8.81985L2.34001 4.46985C2.22568 4.35765 2.08607 4.27456 1.93293 4.22758C1.77979 4.18059 1.6176 4.17108 1.46001 4.19985C1.3006 4.22644 1.15 4.29128 1.02112 4.38881C0.892243 4.48634 0.788925 4.61365 0.720014 4.75985C0.173539 5.93235 -0.0675044 7.22403 0.019306 8.51471C0.106116 9.8054 0.517961 11.0532 1.21653 12.1419C1.91509 13.2307 2.87768 14.1251 4.01476 14.7419C5.15183 15.3587 6.42644 15.6779 7.72001 15.6698C8.19025 15.6714 8.65939 15.6244 9.12001 15.5299L13.63 20.0498C13.723 20.1436 13.8336 20.218 13.9554 20.2687C14.0773 20.3195 14.208 20.3456 14.34 20.3456C14.472 20.3456 14.6027 20.3195 14.7246 20.2687C14.8465 20.218 14.9571 20.1436 15.05 20.0498C15.1437 19.9569 15.2181 19.8463 15.2689 19.7244C15.3197 19.6026 15.3458 19.4719 15.3458 19.3398C15.3458 19.2078 15.3197 19.0771 15.2689 18.9553C15.2181 18.8334 15.1437 18.7228 15.05 18.6299L10.15 13.7298C10.0276 13.6082 9.87572 13.5203 9.70924 13.4748C9.54277 13.4292 9.36734 13.4275 9.20001 13.4698C8.71719 13.5992 8.21984 13.6664 7.72001 13.6698C6.97206 13.6764 6.2302 13.535 5.53715 13.2536C4.84411 12.9723 4.21359 12.5566 3.6819 12.0304C3.15022 11.5043 2.72789 10.8782 2.43923 10.1882C2.15058 9.49816 2.0013 8.75783 2.00001 8.00985C1.99872 7.67487 2.02548 7.34036 2.08001 7.00985L6.00001 10.9398C6.09298 11.0336 6.20358 11.108 6.32544 11.1587C6.4473 11.2095 6.578 11.2356 6.71001 11.2356C6.84203 11.2356 6.97273 11.2095 7.09459 11.1587C7.21645 11.108 7.32705 11.0336 7.42001 10.9398L10.6 7.72985C10.7803 7.54338 10.881 7.29419 10.881 7.03485C10.881 6.77551 10.7803 6.52632 10.6 6.33985L6.71001 2.41985C7.0406 2.36586 7.37505 2.3391 7.71001 2.33985C9.21206 2.3425 10.6517 2.94104 11.7128 4.00409C12.774 5.06713 13.37 6.5078 13.37 8.00985C13.3665 8.50968 13.2993 9.00702 13.17 9.48985C13.1277 9.65717 13.1294 9.83261 13.1749 9.99908C13.2205 10.1656 13.3084 10.3174 13.43 10.4398L18.33 15.3398C18.5183 15.5282 18.7737 15.6339 19.04 15.6339C19.3063 15.6339 19.5617 15.5282 19.75 15.3398C19.9383 15.1515 20.0441 14.8962 20.0441 14.6299C20.0441 14.3635 19.9383 14.1082 19.75 13.9198H19.71Z" fill="white"/>
</svg>
