<svg width="20" height="20" viewBox="0 0 20 20" fill="none" xmlns="http://www.w3.org/2000/svg">
<path d="M9.60296 13.3942C10.1805 13.3942 10.4483 12.9925 10.4483 12.4567V12.1721C10.4651 11.0671 10.8669 10.6067 12.2062 9.68639C13.6376 8.71496 14.5497 7.59353 14.5497 5.97781C14.5497 3.46674 12.5076 2.0271 9.97117 2.0271C8.07939 2.0271 6.41367 2.92281 5.70224 4.53817C5.52653 4.93174 5.45117 5.31674 5.45117 5.6346C5.45117 6.11174 5.72724 6.44674 6.23796 6.44674C6.66474 6.44674 6.94939 6.19567 7.0751 5.78531C7.5101 4.19496 8.55653 3.59246 9.9126 3.59246C11.5447 3.59246 12.8172 4.51317 12.8172 5.9696C12.8172 7.16639 12.0722 7.83603 11.0008 8.5896C9.68653 9.5021 8.72403 10.4814 8.72403 11.9546V12.4817C8.72403 13.0175 9.01724 13.3942 9.60296 13.3942ZM9.6026 17.9728C10.2637 17.9728 10.7912 17.4371 10.7912 16.7842C10.792 16.6279 10.7619 16.473 10.7024 16.3284C10.643 16.1838 10.5555 16.0524 10.4449 15.9419C10.3344 15.8314 10.203 15.7438 10.0585 15.6844C9.91387 15.625 9.75892 15.5948 9.6026 15.5957C8.94974 15.5957 8.40546 16.1232 8.40546 16.7842C8.40546 17.4371 8.94974 17.9728 9.6026 17.9728Z" fill="#000F55"/>
</svg>
