<svg width="37" height="37" viewBox="0 0 37 37" fill="none" xmlns="http://www.w3.org/2000/svg">
<path d="M4.625 9.25H7.70833H32.375" stroke="white" stroke-width="2" stroke-linecap="round" stroke-linejoin="round"/>
<path d="M12.3334 9.24998V6.16665C12.3334 5.3489 12.6582 4.56464 13.2365 3.9864C13.8147 3.40816 14.599 3.08331 15.4167 3.08331H21.5834C22.4011 3.08331 23.1854 3.40816 23.7636 3.9864C24.3419 4.56464 24.6667 5.3489 24.6667 6.16665V9.24998M29.2917 9.24998V30.8333C29.2917 31.6511 28.9669 32.4353 28.3886 33.0136C27.8104 33.5918 27.0261 33.9166 26.2084 33.9166H10.7917C9.97396 33.9166 9.1897 33.5918 8.61146 33.0136C8.03322 32.4353 7.70837 31.6511 7.70837 30.8333V9.24998H29.2917Z" stroke="white" stroke-width="2" stroke-linecap="round" stroke-linejoin="round"/>
<path d="M21.5834 16.9583V26.2083" stroke="white" stroke-width="2" stroke-linecap="round" stroke-linejoin="round"/>
<path d="M15.4166 16.9583V26.2083" stroke="white" stroke-width="2" stroke-linecap="round" stroke-linejoin="round"/>
</svg>
