<svg width="20" height="21" viewBox="0 0 20 21" fill="none" xmlns="http://www.w3.org/2000/svg">
<path d="M1 10.3398L3 8.33984M3 8.33984L10 1.33984L17 8.33984M3 8.33984V18.3398C3 18.8921 3.44772 19.3398 4 19.3398H7M17 8.33984L19 10.3398M17 8.33984V18.3398C17 18.8921 16.5523 19.3398 16 19.3398H13M7 19.3398C7.55228 19.3398 8 18.8921 8 18.3398V14.3398C8 13.7876 8.44772 13.3398 9 13.3398H11C11.5523 13.3398 12 13.7876 12 14.3398V18.3398C12 18.8921 12.4477 19.3398 13 19.3398M7 19.3398H13" stroke="#00061F" stroke-width="2" stroke-linecap="round" stroke-linejoin="round"/>
</svg>
