<svg width="16" height="16" viewBox="0 0 16 16" fill="none" xmlns="http://www.w3.org/2000/svg">
<path d="M2.0592 1.33337C1.06118 3.34164 0.5 5.6053 0.5 8.00004C0.5 10.3948 1.06118 12.6584 2.0592 14.6667M13.8334 14.6667C14.8314 12.6584 15.3926 10.3948 15.3926 8.00004C15.3926 5.6053 14.8314 3.34164 13.8334 1.33337M5.5 5.50004H6.53808C6.91015 5.50004 7.23714 5.74669 7.33935 6.10444L8.66065 10.729C8.76286 11.0867 9.08985 11.3334 9.46192 11.3334H10.5M11.3333 5.50004H11.2666C10.78 5.50004 10.3178 5.71265 10.0011 6.08205L5.99887 10.7514C5.68223 11.1208 5.21998 11.3334 4.73344 11.3334H4.66667" stroke="#000F55" stroke-linecap="round"/>
</svg>
