<svg width="48" height="48" viewBox="0 0 48 48" fill="none" xmlns="http://www.w3.org/2000/svg">
<g clip-path="url(#clip0_7_4419)">
<path d="M43 24C43 34.4934 34.4934 43 24 43C13.5066 43 5 34.4934 5 24C5 13.5066 13.5066 5 24 5C34.4934 5 43 13.5066 43 24Z" stroke="black" stroke-width="2"/>
<path d="M10.8333 14C10.8333 11.7909 12.6242 10 14.8333 10H33.1666C35.3758 10 37.1667 11.7909 37.1667 14V34C37.1667 36.2092 35.3758 38 33.1667 38H14.8333C12.6242 38 10.8333 36.2092 10.8333 34V14Z" stroke="black" stroke-width="2"/>
<mask id="path-3-inside-1_7_4419" fill="white">
<path fill-rule="evenodd" clip-rule="evenodd" d="M38.1666 9.83333L26.7501 36.0243C25.7032 38.426 22.2968 38.426 21.2499 36.0243L9.83331 9.83333"/>
</mask>
<path d="M26.7501 36.0243L24.9167 35.2251L26.7501 36.0243ZM36.3333 9.03416L24.9167 35.2251L28.5835 36.8235L40 10.6325L36.3333 9.03416ZM23.0833 35.2251L11.6667 9.03416L7.99992 10.6325L19.4165 36.8235L23.0833 35.2251ZM24.9167 35.2251C24.5677 36.0257 23.4322 36.0257 23.0833 35.2251L19.4165 36.8235C21.1613 40.8262 26.8387 40.8262 28.5835 36.8235L24.9167 35.2251Z" fill="black" mask="url(#path-3-inside-1_7_4419)"/>
</g>
<defs>
<clipPath id="clip0_7_4419">
<rect width="40" height="40" fill="white" transform="translate(4 4)"/>
</clipPath>
</defs>
</svg>
