<svg width="20" height="21" viewBox="0 0 20 21" fill="#000f55" xmlns="http://www.w3.org/2000/svg">
<path d="M8.32463 2.65715C8.75103 0.90074 11.249 0.900741 11.6754 2.65715C11.9508 3.79177 13.2507 4.33022 14.2478 3.72269C15.7913 2.78223 17.5576 4.54855 16.6172 6.09203C16.0096 7.0891 16.5481 8.38902 17.6827 8.66447C19.4391 9.09087 19.4391 11.5888 17.6827 12.0152C16.5481 12.2907 16.0096 13.5906 16.6172 14.5877C17.5576 16.1311 15.7913 17.8975 14.2478 16.957C13.2507 16.3495 11.9508 16.8879 11.6754 18.0225C11.249 19.7789 8.75103 19.7789 8.32463 18.0225C8.04918 16.8879 6.74926 16.3495 5.75219 16.957C4.2087 17.8975 2.44239 16.1311 3.38285 14.5877C3.99038 13.5906 3.45193 12.2907 2.31731 12.0152C0.560897 11.5888 0.560897 9.09087 2.31731 8.66447C3.45193 8.38902 3.99037 7.0891 3.38285 6.09203C2.44239 4.54855 4.2087 2.78223 5.75219 3.72269C6.74926 4.33022 8.04918 3.79177 8.32463 2.65715Z" stroke="#000f55" stroke-width="2" stroke-linecap="round" stroke-linejoin="round"/>
<path d="M13 10.3398C13 11.9967 11.6569 13.3398 10 13.3398C8.34315 13.3398 7 11.9967 7 10.3398C7 8.68299 8.34315 7.33984 10 7.33984C11.6569 7.33984 13 8.68299 13 10.3398Z" stroke="#000f55" stroke-width="2" stroke-linecap="round" stroke-linejoin="round"/>
</svg>
