<svg width="20" height="21" viewBox="0 0 20 21" fill="none" xmlns="http://www.w3.org/2000/svg">
<path d="M9.29 13.6298C9.247 13.6774 9.20693 13.7275 9.17 13.7798C9.13216 13.8356 9.10189 13.8961 9.08 13.9598C9.05117 14.0165 9.03095 14.0772 9.02001 14.1398C9.0151 14.2064 9.0151 14.2733 9.02001 14.3398C9.01663 14.471 9.04402 14.6012 9.10001 14.7198C9.14492 14.8439 9.21657 14.9566 9.30989 15.05C9.40321 15.1433 9.51591 15.2149 9.64001 15.2598C9.75971 15.3127 9.88913 15.3401 10.02 15.3401C10.1509 15.3401 10.2803 15.3127 10.4 15.2598C10.5241 15.2149 10.6368 15.1433 10.7301 15.05C10.8234 14.9566 10.8951 14.8439 10.94 14.7198C10.9844 14.5983 11.0048 14.4692 11 14.3398C11.0008 14.2082 10.9755 14.0778 10.9258 13.9559C10.876 13.8341 10.8027 13.7233 10.71 13.6298C10.617 13.5361 10.5064 13.4617 10.3846 13.411C10.2627 13.3602 10.132 13.334 10 13.334C9.86799 13.334 9.73729 13.3602 9.61543 13.411C9.49357 13.4617 9.38297 13.5361 9.29 13.6298ZM10 0.339844C8.02219 0.339844 6.08879 0.926334 4.4443 2.02515C2.79981 3.12396 1.51809 4.68575 0.761209 6.51301C0.00433284 8.34027 -0.193701 10.3509 0.192152 12.2907C0.578004 14.2306 1.53041 16.0124 2.92894 17.4109C4.32746 18.8094 6.10929 19.7618 8.0491 20.1477C9.98891 20.5336 11.9996 20.3355 13.8268 19.5786C15.6541 18.8218 17.2159 17.54 18.3147 15.8955C19.4135 14.2511 20 12.3177 20 10.3398C20 9.02662 19.7413 7.72626 19.2388 6.51301C18.7363 5.29975 17.9997 4.19736 17.0711 3.26878C16.1425 2.34019 15.0401 1.6036 13.8268 1.10105C12.6136 0.598501 11.3132 0.339844 10 0.339844ZM10 18.3398C8.41775 18.3398 6.87104 17.8707 5.55544 16.9916C4.23985 16.1125 3.21447 14.8631 2.60897 13.4013C2.00347 11.9395 1.84504 10.331 2.15372 8.77912C2.4624 7.22727 3.22433 5.80181 4.34315 4.68299C5.46197 3.56417 6.88743 2.80224 8.43928 2.49356C9.99113 2.18488 11.5997 2.34331 13.0615 2.94881C14.5233 3.55431 15.7727 4.57969 16.6518 5.89528C17.5308 7.21088 18 8.75759 18 10.3398C18 12.4616 17.1572 14.4964 15.6569 15.9967C14.1566 17.497 12.1217 18.3398 10 18.3398ZM10 5.33984C9.47307 5.33951 8.95534 5.47796 8.49891 5.74129C8.04249 6.00461 7.66347 6.3835 7.4 6.83984C7.32765 6.95366 7.27907 7.08094 7.25718 7.21402C7.23529 7.3471 7.24055 7.48323 7.27263 7.61423C7.30472 7.74523 7.36297 7.86838 7.44389 7.97628C7.52481 8.08418 7.62671 8.17459 7.74348 8.24209C7.86024 8.30958 7.98945 8.35276 8.12334 8.36902C8.25722 8.38529 8.39301 8.3743 8.52254 8.33672C8.65207 8.29914 8.77266 8.23575 8.87705 8.15036C8.98145 8.06497 9.06749 7.95935 9.13 7.83984C9.21811 7.68724 9.34497 7.56063 9.49775 7.47282C9.65053 7.38502 9.82379 7.33914 10 7.33984C10.2652 7.33984 10.5196 7.4452 10.7071 7.63274C10.8946 7.82027 11 8.07463 11 8.33984C11 8.60506 10.8946 8.85941 10.7071 9.04695C10.5196 9.23449 10.2652 9.33984 10 9.33984C9.73479 9.33984 9.48043 9.4452 9.2929 9.63274C9.10536 9.82027 9 10.0746 9 10.3398V11.3398C9 11.6051 9.10536 11.8594 9.2929 12.047C9.48043 12.2345 9.73479 12.3398 10 12.3398C10.2652 12.3398 10.5196 12.2345 10.7071 12.047C10.8946 11.8594 11 11.6051 11 11.3398V11.1598C11.6614 10.9199 12.2174 10.4551 12.5708 9.84671C12.9242 9.23835 13.0525 8.52514 12.9334 7.83173C12.8143 7.13833 12.4552 6.50886 11.919 6.05336C11.3828 5.59786 10.7035 5.3453 10 5.33984Z" fill="#00061F"/>
</svg>
