<svg width="20" height="20" viewBox="0 0 20 20" fill="none" xmlns="http://www.w3.org/2000/svg">
<path d="M15.8333 16.6667L7.16409 7.52338C6.70483 7.06259 6.44694 6.43854 6.44694 5.78796C6.44694 5.13739 6.70483 4.51334 7.16409 4.05255C7.39164 3.82464 7.66189 3.64384 7.95939 3.52048C8.25688 3.39712 8.57578 3.33362 8.89784 3.33362C9.2199 3.33362 9.53879 3.39712 9.83629 3.52048C10.1338 3.64384 10.404 3.82464 10.6316 4.05255C11.0909 4.51334 11.3487 5.13739 11.3487 5.78796C11.3487 6.43854 11.0909 7.06259 10.6316 7.52338L6.73159 11.4292C6.15681 12.005 5.83398 12.7853 5.83398 13.5988C5.83398 14.4123 6.15681 15.1926 6.73159 15.7684C7.01601 16.0531 7.35376 16.279 7.72553 16.4331C8.09731 16.5872 8.49581 16.6665 8.89826 16.6665C9.3007 16.6665 9.6992 16.5872 10.071 16.4331C10.4427 16.279 10.7805 16.0531 11.0649 15.7684L15.8333 10.8334" stroke="#000F55" stroke-width="1.5" stroke-linecap="round" stroke-linejoin="round"/>
</svg>
