<svg width="20" height="20" viewBox="0 0 20 20" fill="none" xmlns="http://www.w3.org/2000/svg">
<path d="M15.4683 12.1949L11.6669 10L15.4683 7.80522C15.6597 7.69465 15.7992 7.51263 15.8564 7.29917C15.9136 7.08572 15.8836 6.8583 15.7731 6.66692C15.6627 6.47554 15.4807 6.33586 15.2673 6.2786C15.0539 6.22133 14.8264 6.25116 14.635 6.36153L10.8333 8.55651V4.16671C10.8333 3.94569 10.7455 3.73373 10.5893 3.57745C10.433 3.42117 10.221 3.33337 10 3.33337C9.77899 3.33337 9.56703 3.42117 9.41075 3.57745C9.25447 3.73373 9.16667 3.94569 9.16667 4.16671V8.55651L5.365 6.36151C5.17356 6.25114 4.94613 6.2213 4.73271 6.27857C4.51928 6.33584 4.33733 6.47552 4.22686 6.6669C4.11639 6.85828 4.08644 7.08569 4.1436 7.29915C4.20076 7.5126 4.34034 7.69462 4.53167 7.80519L8.33308 10L4.53167 12.1949C4.34034 12.3054 4.20076 12.4875 4.1436 12.7009C4.08644 12.9144 4.11639 13.1418 4.22686 13.3332C4.33733 13.5245 4.51928 13.6642 4.73271 13.7215C4.94613 13.7788 5.17356 13.7489 5.365 13.6385L9.16667 11.4436V15.8334C9.16667 16.0544 9.25447 16.2663 9.41075 16.4226C9.56703 16.5789 9.77899 16.6667 10 16.6667C10.221 16.6667 10.433 16.5789 10.5893 16.4226C10.7455 16.2663 10.8333 16.0544 10.8333 15.8334V11.4436L14.635 13.6386C14.8264 13.7489 15.0539 13.7788 15.2673 13.7215C15.4807 13.6642 15.6627 13.5246 15.7731 13.3332C15.8836 13.1418 15.9136 12.9144 15.8564 12.7009C15.7992 12.4875 15.6597 12.3055 15.4683 12.1949V12.1949Z" fill="#000F55"/>
</svg>
