<svg width="24" height="24" viewBox="0 0 24 24" fill="none" xmlns="http://www.w3.org/2000/svg">
<path d="M21.4582 2.81176L21.4582 2.81177L21.46 2.81604C21.4853 2.87539 21.4989 2.93907 21.5 3.00356V7C21.5 7.13261 21.4473 7.25979 21.3536 7.35355C21.2598 7.44732 21.1326 7.5 21 7.5C20.8674 7.5 20.7402 7.44732 20.6464 7.35355C20.5527 7.25979 20.5 7.13261 20.5 7V5.41V4.20289L19.6464 5.05645L13.0564 11.6464L12.7029 12L13.0564 12.3536L19.6464 18.9436L20.5 19.7971V18.59V17C20.5 16.8674 20.5527 16.7402 20.6464 16.6464C20.7402 16.5527 20.8674 16.5 21 16.5C21.1326 16.5 21.2598 16.5527 21.3536 16.6464C21.4473 16.7402 21.5 16.8674 21.5 17V20.9964C21.4989 21.0609 21.4853 21.1246 21.46 21.1839L21.4582 21.1882C21.4075 21.3104 21.3104 21.4075 21.1882 21.4582L21.1882 21.4582L21.184 21.46C21.1246 21.4853 21.0609 21.4989 20.9964 21.5H17C16.8674 21.5 16.7402 21.4473 16.6464 21.3536C16.5527 21.2598 16.5 21.1326 16.5 21C16.5 20.8674 16.5527 20.7402 16.6464 20.6464C16.7402 20.5527 16.8674 20.5 17 20.5H18.59H19.7971L18.9436 19.6464L12.3536 13.0564L12 12.7029L11.6464 13.0564L5.05645 19.6464L4.20289 20.5H5.41H7C7.13261 20.5 7.25979 20.5527 7.35355 20.6464C7.44732 20.7402 7.5 20.8674 7.5 21C7.5 21.1326 7.44732 21.2598 7.35355 21.3536C7.25979 21.4473 7.13261 21.5 7 21.5H3.00356C2.93907 21.4989 2.87539 21.4853 2.81605 21.46L2.81176 21.4582C2.68959 21.4075 2.5925 21.3104 2.54176 21.1882L2.54178 21.1882L2.53996 21.184C2.51467 21.1246 2.5011 21.0609 2.5 20.9965V17C2.5 16.8674 2.55268 16.7402 2.64645 16.6464C2.74021 16.5527 2.86739 16.5 3 16.5C3.13261 16.5 3.25979 16.5527 3.35355 16.6464C3.44732 16.7402 3.5 16.8674 3.5 17V18.59V19.7971L4.35355 18.9436L10.9436 12.3536L11.2971 12L10.9436 11.6464L4.35355 5.05645L3.5 4.20289V5.41V7C3.5 7.13261 3.44732 7.25979 3.35355 7.35355C3.25979 7.44732 3.13261 7.5 3 7.5C2.86739 7.5 2.74021 7.44732 2.64645 7.35355C2.55268 7.25979 2.5 7.13261 2.5 7V3.00354C2.5011 2.93906 2.51467 2.87539 2.53996 2.81604L2.53998 2.81605L2.54176 2.81176C2.5925 2.68959 2.68959 2.5925 2.81176 2.54176L2.81177 2.54178L2.81604 2.53996C2.87539 2.51467 2.93906 2.5011 3.00354 2.5H7C7.13261 2.5 7.25979 2.55268 7.35355 2.64645C7.44732 2.74021 7.5 2.86739 7.5 3C7.5 3.13261 7.44732 3.25979 7.35355 3.35355C7.25979 3.44732 7.13261 3.5 7 3.5H5.41H4.20289L5.05645 4.35355L11.6464 10.9436L12 11.2971L12.3536 10.9436L18.9436 4.35355L19.7971 3.5H18.59H17C16.8674 3.5 16.7402 3.44732 16.6464 3.35355C16.5527 3.25979 16.5 3.13261 16.5 3C16.5 2.86739 16.5527 2.74021 16.6464 2.64645C16.7402 2.55268 16.8674 2.5 17 2.5H20.9965C21.0609 2.5011 21.1246 2.51467 21.184 2.53996L21.1839 2.53998L21.1882 2.54176C21.3104 2.5925 21.4075 2.68959 21.4582 2.81176Z" fill="black" stroke="#000F55"/>
</svg>
