<svg width="24" height="24" viewBox="0 0 24 24" fill="none" xmlns="http://www.w3.org/2000/svg">
<g id="u:eye-slash">
<path id="Vector" d="M12.0005 5.5C11.6202 5.49947 11.2404 5.52814 10.8644 5.58577L10.6463 5.61921C10.584 5.60373 10.525 5.57671 10.4726 5.53951C10.4175 5.50043 10.3706 5.45088 10.3347 5.39369C10.2988 5.3365 10.2744 5.27279 10.2631 5.2062C10.2518 5.13961 10.2537 5.07144 10.2687 5.00559C10.2837 4.93974 10.3116 4.87749 10.3507 4.8224C10.3898 4.76731 10.4393 4.72045 10.4965 4.68451C10.5537 4.64857 10.6174 4.62425 10.684 4.61293L10.684 4.61294L10.6878 4.61227C11.1201 4.53536 11.5585 4.49778 11.9977 4.5H12.0002C15.8464 4.5 19.496 7.23575 21.4608 11.7975C21.4877 11.8599 21.5015 11.9271 21.5015 11.995C21.5015 12.0629 21.4877 12.1301 21.4608 12.1925L21.46 12.1945C21.1314 12.9678 20.7395 13.7127 20.2884 14.4215L20.2842 14.4282L20.2802 14.4349C20.2245 14.5287 20.1396 14.6018 20.0386 14.6429C19.9375 14.6841 19.8257 14.691 19.7203 14.6627C19.6149 14.6343 19.5217 14.5723 19.4549 14.486C19.3882 14.4 19.3515 14.2946 19.3502 14.1858C19.3496 14.0884 19.3774 13.9931 19.4302 13.9113L19.4302 13.9113L19.4329 13.907C19.7772 13.362 20.0876 12.7963 20.3625 12.2132L20.4627 12.0005L20.3629 11.7877C18.5706 7.9663 15.4363 5.50017 12.0005 5.5ZM12.0005 5.5C12.0004 5.5 12.0003 5.5 12.0002 5.5V6L12.0009 5.5C12.0008 5.5 12.0007 5.5 12.0005 5.5ZM5.73694 7.16022L6.10469 6.80623L5.74317 6.44587L2.64374 3.35645C2.64367 3.35637 2.64359 3.3563 2.64352 3.35623C2.54912 3.26171 2.49609 3.13359 2.49609 3C2.49609 2.8663 2.5492 2.73809 2.64374 2.64355C2.69055 2.59674 2.74612 2.55961 2.80728 2.53428C2.86844 2.50895 2.93399 2.49591 3.00019 2.49591C3.06638 2.49591 3.13193 2.50895 3.19309 2.53428C3.25425 2.55961 3.30982 2.59674 3.35663 2.64355L21.3566 20.6436L21.3581 20.645C21.405 20.6915 21.4421 20.7468 21.4675 20.8077C21.4929 20.8686 21.506 20.934 21.506 21C21.506 21.066 21.4929 21.1314 21.4675 21.1923C21.4421 21.2532 21.405 21.3085 21.3581 21.355L21.3552 21.3579C21.3087 21.4048 21.2534 21.442 21.1925 21.4673C21.1315 21.4927 21.0662 21.5058 21.0002 21.5058C20.9342 21.5058 20.8688 21.4927 20.8079 21.4673C20.747 21.442 20.6917 21.4048 20.6452 21.3579L20.6443 21.357L17.4043 18.107L17.1153 17.8171L16.7741 18.0432C15.3572 18.9818 13.6979 19.4879 11.9984 19.5C8.15275 19.4991 4.50393 16.7634 2.53941 12.2022L2.53844 12.2C2.51091 12.1369 2.4967 12.0688 2.4967 12C2.4967 11.9312 2.51091 11.8631 2.53844 11.8L2.53846 11.8L2.54014 11.7961C3.28367 10.0518 4.37088 8.47519 5.73694 7.16022ZM10.4237 11.1264L9.82353 10.5262L9.58956 11.3422C9.52797 11.5569 9.49787 11.7795 9.50019 12.0029C9.50095 12.6649 9.76426 13.2996 10.2324 13.7678C10.7006 14.2359 11.3353 14.4992 11.9973 14.5C12.2207 14.5023 12.4433 14.4722 12.658 14.4106L13.4739 14.1767L12.8737 13.5764L10.4237 11.1264ZM12.0002 18.5V18.5L12.0059 18.5C13.3565 18.4846 14.6797 18.116 15.8438 17.4309L16.4042 17.1011L15.9415 16.6442L14.3515 15.0742L14.0865 14.8126L13.7599 14.9915C13.096 15.3553 12.332 15.494 11.5825 15.3868C10.8331 15.2796 10.1386 14.9323 9.60326 14.3969C9.06793 13.8616 8.72061 13.1671 8.61341 12.4177C8.5062 11.6682 8.6449 10.9042 9.00868 10.2403L9.18775 9.91343L8.92572 9.64844L7.15572 7.85844L6.81169 7.51051L6.4564 7.84694C5.27245 8.96804 4.31755 10.3084 3.64474 11.7937L3.54991 12.003L3.64703 12.2113C5.42949 16.0338 8.56431 18.5 12.0002 18.5Z" stroke="#64748B"/>
</g>
</svg>
