<svg width="24" height="24" viewBox="0 0 24 24" fill="none" xmlns="http://www.w3.org/2000/svg">
<g id="u:eye">
<path id="Vector" d="M21.4604 11.7978L21.4613 11.8C21.4889 11.8631 21.5031 11.9312 21.5031 12C21.5031 12.0688 21.4889 12.1369 21.4613 12.2L21.4604 12.2022C19.4955 16.7641 15.8459 19.5 11.9996 19.5C8.15328 19.5 4.50363 16.7641 2.5388 12.2022L2.53784 12.2C2.5103 12.1369 2.49609 12.0688 2.49609 12C2.49609 11.9312 2.5103 11.8631 2.53784 11.8L2.53784 11.8L2.5388 11.7978C4.50363 7.23587 8.15328 4.5 11.9996 4.5C15.8459 4.5 19.4955 7.23587 21.4604 11.7978ZM3.64642 11.7887L3.54789 12L3.64642 12.2113C5.42905 16.0342 8.57401 18.5 11.9996 18.5C15.4251 18.5 18.5701 16.0342 20.3527 12.2113L20.4513 12L20.3527 11.7887C18.5701 7.96583 15.4251 5.5 11.9996 5.5C8.57401 5.5 5.42905 7.96583 3.64642 11.7887ZM10.0551 9.08986C10.6307 8.70527 11.3073 8.5 11.9996 8.5C12.9278 8.5 13.8181 8.86875 14.4745 9.52513C15.1308 10.1815 15.4996 11.0717 15.4996 12C15.4996 12.6922 15.2943 13.3689 14.9097 13.9445C14.5251 14.5201 13.9785 14.9687 13.339 15.2336C12.6994 15.4985 11.9957 15.5678 11.3168 15.4327C10.6378 15.2977 10.0142 14.9644 9.5247 14.4749C9.03522 13.9854 8.70188 13.3617 8.56683 12.6828C8.43178 12.0039 8.50109 11.3001 8.766 10.6606C9.03091 10.0211 9.47951 9.47444 10.0551 9.08986ZM10.6107 14.0787C11.0218 14.3534 11.5051 14.5 11.9996 14.5C12.6626 14.5 13.2985 14.2366 13.7673 13.7678C14.2362 13.2989 14.4996 12.663 14.4996 12C14.4996 11.5055 14.353 11.0222 14.0783 10.6111C13.8035 10.2 13.4131 9.87952 12.9563 9.6903C12.4995 9.50108 11.9968 9.45157 11.5119 9.54804C11.0269 9.6445 10.5814 9.8826 10.2318 10.2322C9.88218 10.5819 9.64408 11.0273 9.54762 11.5123C9.45115 11.9972 9.50066 12.4999 9.68988 12.9567C9.8791 13.4135 10.1995 13.804 10.6107 14.0787Z" fill="black" stroke="#000F55"/>
</g>
</svg>
