<svg width="20" height="20" viewBox="0 0 20 20" fill="none" xmlns="http://www.w3.org/2000/svg">
<path d="M10.127 6.36249L10.127 6.36259L10.1362 6.36619C10.1737 6.3807 10.2081 6.40184 10.238 6.42857C10.2973 6.49473 10.3312 6.57987 10.3336 6.66882C10.3326 6.72181 10.319 6.77383 10.2938 6.82053C10.268 6.8686 10.2307 6.90958 10.1852 6.93987C10.1398 6.97015 10.0876 6.98881 10.0333 6.99421L10.0828 7.49176L10.0333 6.99421C9.97947 6.99957 9.92514 6.99173 9.87501 6.97139C9.83143 6.95301 9.79099 6.92799 9.75509 6.89727C9.72822 6.86808 9.70676 6.83431 9.69173 6.79753C9.67514 6.75691 9.66673 6.71343 9.66699 6.66956L9.66703 6.66167L9.66683 6.65379C9.66603 6.62255 9.67255 6.59157 9.68588 6.56331L9.69067 6.55315L9.695 6.54279C9.71284 6.50009 9.73703 6.46038 9.76673 6.42498C9.79564 6.39994 9.82868 6.38004 9.86442 6.36618L9.86445 6.36628L9.87366 6.36249C9.95482 6.32915 10.0458 6.32915 10.127 6.36249ZM9.76463 9.7643C9.82714 9.70179 9.91192 9.66667 10.0003 9.66667C10.0887 9.66667 10.1735 9.70179 10.236 9.7643C10.2985 9.82681 10.3337 9.9116 10.3337 10V13.3333C10.3337 13.4217 10.2985 13.5065 10.236 13.569C10.1735 13.6315 10.0887 13.6667 10.0003 13.6667C9.91192 13.6667 9.82714 13.6315 9.76463 13.569C9.70212 13.5065 9.667 13.4217 9.667 13.3333V10C9.667 9.91159 9.70212 9.82681 9.76463 9.7643ZM5.64836 3.48682C6.93655 2.62608 8.45104 2.16667 10.0003 2.16667C11.029 2.16667 12.0476 2.36928 12.998 2.76294C13.9484 3.15661 14.8119 3.7336 15.5393 4.461C16.2667 5.18839 16.8437 6.05193 17.2374 7.00231C17.631 7.9527 17.8337 8.97131 17.8337 10C17.8337 11.5493 17.3742 13.0638 16.5135 14.352C15.6528 15.6402 14.4294 16.6442 12.998 17.2371C11.5667 17.8299 9.99164 17.9851 8.47212 17.6828C6.9526 17.3806 5.55684 16.6345 4.46133 15.539C3.36581 14.4435 2.61976 13.0477 2.31751 11.5282C2.01526 10.0087 2.17039 8.43367 2.76327 7.00231C3.35616 5.57096 4.36018 4.34756 5.64836 3.48682ZM6.01874 15.9589C7.19729 16.7463 8.5829 17.1667 10.0003 17.1667C11.901 17.1667 13.7239 16.4116 15.0679 15.0676C16.4119 13.7236 17.167 11.9007 17.167 10C17.167 8.58257 16.7467 7.19697 15.9592 6.01841C15.1717 4.83986 14.0524 3.92129 12.7429 3.37886C11.4334 2.83644 9.99238 2.69451 8.60218 2.97104C7.21199 3.24757 5.93501 3.93013 4.93273 4.9324C3.93045 5.93468 3.2479 7.21166 2.97137 8.60185C2.69484 9.99205 2.83676 11.433 3.37919 12.7426C3.92162 14.0521 4.84019 15.1714 6.01874 15.9589Z" fill="#147D8F" stroke="#147D8F"/>
</svg>
