<svg width="20" height="20" viewBox="0 0 20 20" fill="none" xmlns="http://www.w3.org/2000/svg">
<path d="M12.8333 5.00008V5.50008H13.3333H16.6667C16.7551 5.50008 16.8399 5.5352 16.9024 5.59771C16.9649 5.66022 17 5.74501 17 5.83342C17 5.92182 16.9649 6.00661 16.9024 6.06912L17.2559 6.42267L16.9024 6.06912C16.8399 6.13163 16.7551 6.16675 16.6667 6.16675H15.8333H15.3333V6.66675V15.8334C15.3333 16.3638 15.1226 16.8726 14.7475 17.2476C14.3725 17.6227 13.8638 17.8334 13.3333 17.8334H6.66667C6.13623 17.8334 5.62753 17.6227 5.25245 17.2476C4.87738 16.8726 4.66667 16.3638 4.66667 15.8334V6.66675V6.16675H4.16667H3.33333C3.24493 6.16675 3.16014 6.13163 3.09763 6.06912C3.03512 6.00661 3 5.92182 3 5.83342C3 5.74501 3.03512 5.66022 3.09763 5.59771C3.16014 5.5352 3.24493 5.50008 3.33333 5.50008H6.66667H7.16667V5.00008V4.16675C7.16667 3.63632 7.37738 3.12761 7.75245 2.75253C8.12753 2.37746 8.63623 2.16675 9.16667 2.16675H10.8333C11.3638 2.16675 11.8725 2.37746 12.2475 2.75253L12.5971 2.40295L12.2475 2.75253C12.6226 3.12761 12.8333 3.63631 12.8333 4.16675V5.00008ZM11.6667 5.50008H12.1667V5.00008V4.16675C12.1667 3.81313 12.0262 3.47399 11.7761 3.22394C11.5261 2.97389 11.187 2.83341 10.8333 2.83341H9.16667C8.81304 2.83341 8.47391 2.97389 8.22386 3.22394C7.97381 3.47399 7.83333 3.81313 7.83333 4.16675V5.00008V5.50008H8.33333H11.6667ZM5.83333 6.16675H5.33333V6.66675V15.8334C5.33333 16.187 5.47381 16.5262 5.72386 16.7762C5.97391 17.0263 6.31304 17.1667 6.66667 17.1667H13.3333C13.687 17.1667 14.0261 17.0263 14.2761 16.7762C14.5262 16.5262 14.6667 16.187 14.6667 15.8334V6.66675V6.16675H14.1667H5.83333ZM8.56904 14.4025C8.50652 14.465 8.42174 14.5001 8.33333 14.5001C8.24493 14.5001 8.16014 14.465 8.09763 14.4025C8.03512 14.3399 8 14.2552 8 14.1667V9.16675C8 9.07834 8.03512 8.99356 8.09763 8.93105C8.16014 8.86853 8.24493 8.83342 8.33333 8.83342C8.42174 8.83342 8.50652 8.86853 8.56904 8.93105C8.63155 8.99356 8.66667 9.07834 8.66667 9.16675V14.1667C8.66667 14.2552 8.63155 14.3399 8.56904 14.4025ZM11.9024 14.4025C11.8399 14.465 11.7551 14.5001 11.6667 14.5001C11.5783 14.5001 11.4935 14.465 11.431 14.4025C11.3685 14.3399 11.3333 14.2552 11.3333 14.1667V9.16675C11.3333 9.07834 11.3685 8.99356 11.431 8.93105C11.4935 8.86853 11.5783 8.83342 11.6667 8.83342C11.7551 8.83342 11.8399 8.86853 11.9024 8.93105C11.9649 8.99356 12 9.07834 12 9.16675V14.1667C12 14.2552 11.9649 14.3399 11.9024 14.4025Z" fill="black" stroke="#000F55"/>
</svg>
