<svg width="21" height="21" viewBox="0 0 21 21" fill="none" xmlns="http://www.w3.org/2000/svg">
<path d="M6 14.3398C6.39782 14.3398 6.77936 14.1818 7.06066 13.9005C7.34196 13.6192 7.5 13.2377 7.5 12.8398C7.50488 12.79 7.50488 12.7397 7.5 12.6898L10.29 9.89984H10.52H10.75L12.36 11.5098C12.36 11.5098 12.36 11.5598 12.36 11.5898C12.36 11.9877 12.518 12.3692 12.7993 12.6505C13.0806 12.9318 13.4622 13.0898 13.86 13.0898C14.2578 13.0898 14.6394 12.9318 14.9207 12.6505C15.202 12.3692 15.36 11.9877 15.36 11.5898V11.5098L19 7.83984C19.2967 7.83984 19.5867 7.75187 19.8334 7.58705C20.08 7.42223 20.2723 7.18796 20.3858 6.91387C20.4993 6.63978 20.5291 6.33818 20.4712 6.04721C20.4133 5.75624 20.2704 5.48896 20.0607 5.27918C19.8509 5.0694 19.5836 4.92654 19.2926 4.86867C19.0017 4.81079 18.7001 4.84049 18.426 4.95402C18.1519 5.06756 17.9176 5.25981 17.7528 5.50649C17.588 5.75316 17.5 6.04317 17.5 6.33984C17.4951 6.38972 17.4951 6.43996 17.5 6.48984L13.89 10.0998H13.73L12 8.33984C12 7.94202 11.842 7.56049 11.5607 7.27918C11.2794 6.99788 10.8978 6.83984 10.5 6.83984C10.1022 6.83984 9.72064 6.99788 9.43934 7.27918C9.15804 7.56049 9 7.94202 9 8.33984L6 11.3398C5.60218 11.3398 5.22064 11.4979 4.93934 11.7792C4.65804 12.0605 4.5 12.442 4.5 12.8398C4.5 13.2377 4.65804 13.6192 4.93934 13.9005C5.22064 14.1818 5.60218 14.3398 6 14.3398ZM19.5 18.3398H2.5V1.33984C2.5 1.07463 2.39464 0.820273 2.20711 0.632737C2.01957 0.445201 1.76522 0.339844 1.5 0.339844C1.23478 0.339844 0.98043 0.445201 0.792893 0.632737C0.605357 0.820273 0.5 1.07463 0.5 1.33984V19.3398C0.5 19.6051 0.605357 19.8594 0.792893 20.047C0.98043 20.2345 1.23478 20.3398 1.5 20.3398H19.5C19.7652 20.3398 20.0196 20.2345 20.2071 20.047C20.3946 19.8594 20.5 19.6051 20.5 19.3398C20.5 19.0746 20.3946 18.8203 20.2071 18.6327C20.0196 18.4452 19.7652 18.3398 19.5 18.3398Z" fill="#00061F"/>
</svg>
